<svg width="14" height="18" viewBox="0 0 14 18" fill="none" xmlns="http://www.w3.org/2000/svg">
<path d="M1.51024e-05 15.3138L1.51024e-05 2.68623C-0.000706829 2.18771 0.139793 1.69917 0.405253 1.27717C0.670713 0.855173 1.05028 0.516964 1.50001 0.301693C2.03363 0.0496931 2.62731 -0.0473667 3.21342 0.0215732C3.79952 0.0905131 4.35447 0.32268 4.81501 0.691617L12.465 7.00539C12.751 7.25316 12.9803 7.5595 13.1375 7.90364C13.2946 8.24778 13.376 8.62168 13.376 9C13.376 9.37832 13.2946 9.75222 13.1375 10.0964C12.9803 10.4405 12.751 10.7468 12.465 10.9946L4.81501 17.3084C4.35447 17.6773 3.79952 17.9095 3.21342 17.9784C2.62731 18.0474 2.03363 17.9503 1.50001 17.6983C1.05028 17.483 0.670713 17.1448 0.405253 16.7228C0.139793 16.3008 -0.000706829 15.8123 1.51024e-05 15.3138Z" fill="#808080"/>
</svg>
