<svg width="18" height="18" viewBox="0 0 18 18" fill="none" xmlns="http://www.w3.org/2000/svg">
<path d="M8.16943 5.27657C8.29014 5.15586 8.35795 4.99214 8.35795 4.82143C8.35795 4.65072 8.29014 4.487 8.16943 4.36629C8.04872 4.24557 7.885 4.17776 7.71429 4.17776C7.54357 4.17776 7.37985 4.24557 7.25914 4.36629L5.44371 6.18171L4.93329 5.71629C4.80646 5.60789 4.64246 5.55304 4.47594 5.56333C4.30942 5.57362 4.15342 5.64825 4.04092 5.77144C3.92841 5.89463 3.8682 6.05674 3.87301 6.22351C3.87782 6.39028 3.94729 6.54865 4.06671 6.66514L5.031 7.54586C5.15318 7.6571 5.3135 7.71702 5.47869 7.71319C5.64388 7.70936 5.80125 7.64207 5.91814 7.52529L8.16943 5.27657ZM8.16943 10.7949C8.2293 10.8546 8.27679 10.9255 8.3092 11.0036C8.34161 11.0817 8.35829 11.1654 8.35829 11.25C8.35829 11.3346 8.34161 11.4183 8.3092 11.4964C8.27679 11.5745 8.2293 11.6454 8.16943 11.7051L5.91943 13.9551C5.80231 14.0721 5.64458 14.1394 5.47908 14.143C5.31359 14.1466 5.15309 14.0862 5.031 13.9744L4.06671 13.0937C3.94729 12.9772 3.87782 12.8189 3.87301 12.6521C3.8682 12.4853 3.92841 12.3232 4.04092 12.2C4.15342 12.0768 4.30942 12.0022 4.47594 11.9919C4.64246 11.9816 4.80646 12.0365 4.93329 12.1449L5.44371 12.6116L7.25914 10.7949C7.31886 10.735 7.3898 10.6875 7.4679 10.6551C7.546 10.6227 7.62973 10.606 7.71429 10.606C7.79884 10.606 7.88257 10.6227 7.96067 10.6551C8.03877 10.6875 8.10971 10.735 8.16943 10.7949ZM10.2857 11.5714C10.1152 11.5714 9.9517 11.6392 9.83115 11.7597C9.71059 11.8803 9.64286 12.0438 9.64286 12.2143C9.64286 12.3848 9.71059 12.5483 9.83115 12.6689C9.9517 12.7894 10.1152 12.8571 10.2857 12.8571H13.5C13.6705 12.8571 13.834 12.7894 13.9546 12.6689C14.0751 12.5483 14.1429 12.3848 14.1429 12.2143C14.1429 12.0438 14.0751 11.8803 13.9546 11.7597C13.834 11.6392 13.6705 11.5714 13.5 11.5714H10.2857ZM9.64286 5.78571C9.64286 5.61522 9.71059 5.4517 9.83115 5.33115C9.9517 5.21059 10.1152 5.14286 10.2857 5.14286H13.5C13.6705 5.14286 13.834 5.21059 13.9546 5.33115C14.0751 5.4517 14.1429 5.61522 14.1429 5.78571C14.1429 5.95621 14.0751 6.11972 13.9546 6.24028C13.834 6.36084 13.6705 6.42857 13.5 6.42857H10.2857C10.1152 6.42857 9.9517 6.36084 9.83115 6.24028C9.71059 6.11972 9.64286 5.95621 9.64286 5.78571ZM3.85714 0C2.83416 0 1.85309 0.406377 1.12973 1.12973C0.406377 1.85309 0 2.83416 0 3.85714V14.1429C0 15.1658 0.406377 16.1469 1.12973 16.8703C1.85309 17.5936 2.83416 18 3.85714 18H14.1429C15.1658 18 16.1469 17.5936 16.8703 16.8703C17.5936 16.1469 18 15.1658 18 14.1429V3.85714C18 2.83416 17.5936 1.85309 16.8703 1.12973C16.1469 0.406377 15.1658 0 14.1429 0H3.85714ZM1.28571 3.85714C1.28571 3.17516 1.55663 2.5211 2.03887 2.03887C2.5211 1.55663 3.17516 1.28571 3.85714 1.28571H14.1429C14.8248 1.28571 15.4789 1.55663 15.9611 2.03887C16.4434 2.5211 16.7143 3.17516 16.7143 3.85714V14.1429C16.7143 14.8248 16.4434 15.4789 15.9611 15.9611C15.4789 16.4434 14.8248 16.7143 14.1429 16.7143H3.85714C3.17516 16.7143 2.5211 16.4434 2.03887 15.9611C1.55663 15.4789 1.28571 14.8248 1.28571 14.1429V3.85714Z" fill="#1E1E1E"/>
</svg>
