<svg width="24" height="24" viewBox="0 0 24 24" fill="none" xmlns="http://www.w3.org/2000/svg">
<g clip-path="url(#clip0_1_25283)">
<path d="M14.885 17.9995C14.3003 17.9995 13.8017 17.7929 13.389 17.3795C12.9763 16.9662 12.7697 16.4679 12.769 15.8845C12.7683 15.3012 12.975 14.8022 13.389 14.3875C13.803 13.9729 14.3017 13.7665 14.885 13.7685C15.4683 13.7705 15.967 13.9772 16.381 14.3885C16.795 14.7999 17.0013 15.2985 17 15.8845C16.9987 16.4705 16.792 16.9692 16.38 17.3805C15.968 17.7919 15.4697 17.9982 14.885 17.9995ZM5.615 20.9995C5.155 20.9995 4.771 20.8455 4.463 20.5375C4.155 20.2295 4.00067 19.8452 4 19.3845V6.61453C4 6.15453 4.15433 5.77053 4.463 5.46253C4.77167 5.15453 5.156 5.0002 5.616 4.99953H7.385V2.76953H8.462V4.99953H15.616V2.76953H16.616V4.99953H18.385C18.845 4.99953 19.2293 5.15386 19.538 5.46253C19.8467 5.7712 20.0007 6.15553 20 6.61553V19.3845C20 19.8445 19.846 20.2289 19.538 20.5375C19.23 20.8462 18.8453 21.0002 18.384 20.9995H5.615ZM5.615 19.9995H18.385C18.5383 19.9995 18.6793 19.9355 18.808 19.8075C18.9367 19.6795 19.0007 19.5382 19 19.3835V10.6155H5V19.3845C5 19.5379 5.064 19.6789 5.192 19.8075C5.32 19.9362 5.461 20.0002 5.615 19.9995Z" fill="url(#paint0_linear_1_25283)"/>
</g>
<defs>
<linearGradient id="paint0_linear_1_25283" x1="4" y1="11.1682" x2="20.0004" y2="11.2137" gradientUnits="userSpaceOnUse">
<stop stop-color="#EE4B9E"/>
<stop offset="1" stop-color="#7627B5"/>
</linearGradient>
<clipPath id="clip0_1_25283">
<rect width="24" height="24" fill="white"/>
</clipPath>
</defs>
</svg>
