<svg width="17" height="17" viewBox="0 0 17 17" fill="none" xmlns="http://www.w3.org/2000/svg">
<path d="M12.0067 3.12457L13.8747 4.99254M13.2076 1.47897L8.15432 6.53226C7.89244 6.79242 7.71424 7.12486 7.64255 7.48697L7.17578 9.82347L9.51228 9.35582C9.87404 9.28346 10.2058 9.10611 10.467 8.84493L15.5203 3.79164C15.6721 3.63979 15.7926 3.45951 15.8748 3.26111C15.957 3.0627 15.9992 2.85006 15.9992 2.63531C15.9992 2.42055 15.957 2.20791 15.8748 2.0095C15.7926 1.8111 15.6721 1.63082 15.5203 1.47897C15.3684 1.32712 15.1882 1.20666 14.9897 1.12448C14.7913 1.0423 14.5787 1 14.3639 1C14.1492 1 13.9365 1.0423 13.7381 1.12448C13.5397 1.20666 13.3595 1.32712 13.2076 1.47897Z" stroke="url(#paint0_linear_808_6348)" stroke-width="2" stroke-linecap="round" stroke-linejoin="round"/>
<path d="M14.2354 11.5883V14.2354C14.2354 14.7034 14.0495 15.1523 13.7186 15.4832C13.3876 15.8142 12.9387 16.0001 12.4707 16.0001H2.76472C2.29669 16.0001 1.84783 15.8142 1.51688 15.4832C1.18593 15.1523 1 14.7034 1 14.2354V4.52937C1 4.06134 1.18593 3.61247 1.51688 3.28152C1.84783 2.95057 2.29669 2.76465 2.76472 2.76465H5.41181" stroke="url(#paint1_linear_808_6348)" stroke-width="2" stroke-linecap="round" stroke-linejoin="round"/>
<defs>
<linearGradient id="paint0_linear_808_6348" x1="7.17578" y1="5.06501" x2="15.9994" y2="5.09363" gradientUnits="userSpaceOnUse">
<stop stop-color="#EE4B9E"/>
<stop offset="1" stop-color="#7627B5"/>
</linearGradient>
<linearGradient id="paint1_linear_808_6348" x1="1" y1="8.86227" x2="14.2357" y2="8.9052" gradientUnits="userSpaceOnUse">
<stop stop-color="#EE4B9E"/>
<stop offset="1" stop-color="#7627B5"/>
</linearGradient>
</defs>
</svg>
