<svg width="17" height="18" viewBox="0 0 17 18" fill="none" xmlns="http://www.w3.org/2000/svg">
<path d="M14.4 16.2V6.3H1.8V16.2H14.4ZM11.7 0H13.5V1.8H14.4C14.8774 1.8 15.3352 1.98964 15.6728 2.32721C16.0104 2.66477 16.2 3.12261 16.2 3.6V16.2C16.2 17.199 15.399 18 14.4 18H1.8C1.32261 18 0.864773 17.8104 0.527208 17.4728C0.189642 17.1352 0 16.6774 0 16.2V3.6C0 2.61 0.81 1.8 1.8 1.8H2.7V0H4.5V1.8H11.7V0ZM8.1 14.553L7.578 14.076C5.724 12.393 4.5 11.286 4.5 9.927C4.5 8.82 5.373 7.947 6.48 7.947C7.11 7.947 7.704 8.235 8.1 8.694C8.496 8.235 9.09 7.947 9.72 7.947C10.827 7.947 11.7 8.82 11.7 9.927C11.7 11.286 10.476 12.393 8.622 14.076L8.1 14.553Z" fill="#1E1E1E"/>
</svg>
