<svg width="26" height="26" viewBox="0 0 26 26" fill="none" xmlns="http://www.w3.org/2000/svg">
<path d="M12.8349 0C12.3035 0 11.7939 0.210714 11.4182 0.585786C11.0424 0.960859 10.8313 1.46957 10.8313 2V12C10.8313 12.5304 11.0424 13.0391 11.4182 13.4142C11.7939 13.7893 12.3035 14 12.8349 14C13.3663 14 13.8759 13.7893 14.2517 13.4142C14.6274 13.0391 14.8385 12.5304 14.8385 12V2C14.8385 1.46957 14.6274 0.960859 14.2517 0.585786C13.8759 0.210714 13.3663 0 12.8349 0ZM5.66612 2.594C5.37711 2.63044 5.10493 2.74996 4.88272 2.938C3.35933 4.13719 2.1284 5.66581 1.28263 7.40871C0.436859 9.15162 -0.00169251 11.0634 4.90863e-06 13C4.90863e-06 20.058 5.7623 25.813 12.8349 25.813C19.9076 25.813 25.6708 20.058 25.6708 13C25.6708 8.927 23.7654 5.283 20.7871 2.937C20.6329 2.81389 20.456 2.72229 20.2663 2.66745C20.0767 2.6126 19.8781 2.59558 19.6818 2.61736C19.4856 2.63913 19.2956 2.69928 19.1226 2.79436C18.9497 2.88944 18.7972 3.01759 18.6739 3.1715C18.5505 3.32541 18.4588 3.50206 18.4038 3.69137C18.3489 3.88068 18.3318 4.07893 18.3536 4.27482C18.3755 4.4707 18.4357 4.66038 18.531 4.83302C18.6262 5.00566 18.7546 5.15789 18.9088 5.281C20.0805 6.19888 21.0277 7.37086 21.6786 8.7082C22.3294 10.0455 22.6669 11.5132 22.6655 13C22.6685 14.2895 22.4163 15.5669 21.9234 16.7589C21.4304 17.9508 20.7064 19.0338 19.793 19.9456C18.8795 20.8574 17.7946 21.5801 16.6005 22.0722C15.4064 22.5643 14.1267 22.816 12.8349 22.813C11.5431 22.816 10.2634 22.5643 9.06934 22.0722C7.87527 21.5801 6.79035 20.8574 5.8769 19.9456C4.96344 19.0338 4.23944 17.9508 3.74649 16.7589C3.25353 15.5669 3.00133 14.2895 3.00437 13C3.00294 11.5132 3.34043 10.0455 3.99129 8.7082C4.64216 7.37086 5.58933 6.19888 6.76108 5.281C7.02638 5.08209 7.21826 4.80112 7.3068 4.48192C7.39534 4.16272 7.37556 3.82325 7.25054 3.51645C7.12552 3.20966 6.9023 2.95279 6.61568 2.78592C6.32907 2.61906 5.99519 2.55157 5.66612 2.594Z" fill="url(#paint0_linear_1_9789)"/>
<defs>
<linearGradient id="paint0_linear_1_9789" x1="-2.28964e-08" y1="11.8922" x2="25.6714" y2="11.975" gradientUnits="userSpaceOnUse">
<stop stop-color="#EE4B9E"/>
<stop offset="1" stop-color="#7627B5"/>
</linearGradient>
</defs>
</svg>
