<svg width="99" height="99" viewBox="0 0 99 99" fill="none" xmlns="http://www.w3.org/2000/svg">
<path d="M49.5 12.375C50.5514 12.3762 51.5626 12.7788 52.3271 13.5005C53.0916 14.2222 53.5517 15.2087 53.6133 16.2583C53.6749 17.3078 53.3334 18.3413 52.6586 19.1476C51.9838 19.9538 51.0266 20.4719 49.9826 20.5961L49.5 20.625H28.875C27.8646 20.6251 26.8895 20.9961 26.1345 21.6674C25.3794 22.3388 24.8971 23.264 24.7789 24.2674L24.75 24.75V74.25C24.7501 75.2603 25.1211 76.2355 25.7924 76.9905C26.4638 77.7456 27.389 78.2279 28.3924 78.3461L28.875 78.375H47.4375C48.4889 78.3762 49.5001 78.7787 50.2646 79.5005C51.0291 80.2222 51.4892 81.2087 51.5508 82.2583C51.6124 83.3078 51.2709 84.3413 50.5961 85.1476C49.9213 85.9538 48.9641 86.4719 47.9201 86.5961L47.4375 86.625H28.875C25.7185 86.6252 22.6812 85.4192 20.3847 83.2537C18.0881 81.0882 16.7058 78.1271 16.5206 74.976L16.5 74.25V24.75C16.4998 21.5935 17.7058 18.5563 19.8713 16.2597C22.0367 13.9631 24.9979 12.5808 28.149 12.3956L28.875 12.375H49.5ZM73.0413 34.914L84.7068 46.5836C85.4801 47.3572 85.9146 48.4062 85.9146 49.5C85.9146 50.5938 85.4801 51.6428 84.7068 52.4164L73.0413 64.086C72.2673 64.8595 71.2177 65.2938 70.1235 65.2934C69.0293 65.293 67.98 64.858 67.2065 64.0839C66.4331 63.3099 65.9987 62.2603 65.9991 61.1661C65.9995 60.0719 66.4346 59.0226 67.2086 58.2491L71.8327 53.625H49.5C48.406 53.625 47.3568 53.1904 46.5832 52.4168C45.8096 51.6432 45.375 50.594 45.375 49.5C45.375 48.406 45.8096 47.3568 46.5832 46.5832C47.3568 45.8096 48.406 45.375 49.5 45.375H71.8327L67.2086 40.7509C66.4346 39.9774 65.9995 38.9281 65.9991 37.8339C65.9987 36.7397 66.4331 35.6901 67.2065 34.9161C67.98 34.142 69.0293 33.707 70.1235 33.7066C71.2177 33.7062 72.2673 34.1405 73.0413 34.914Z" fill="url(#paint0_linear_825_3001)"/>
<defs>
<linearGradient id="paint0_linear_825_3001" x1="16.5" y1="46.5823" x2="85.9161" y2="46.7928" gradientUnits="userSpaceOnUse">
<stop stop-color="#EE4B9E"/>
<stop offset="1" stop-color="#7627B5"/>
</linearGradient>
</defs>
</svg>
