<svg width="28" height="32" viewBox="0 0 28 32" fill="none" xmlns="http://www.w3.org/2000/svg">
<path d="M13.9986 0C12.8924 0 11.9986 0.893738 11.9986 1.99997V3.19996C7.43621 4.12495 3.99875 8.16239 3.99875 12.9998V14.1748C3.99875 17.1123 2.91752 19.9497 0.967541 22.1497L0.505047 22.6685C-0.0199461 23.2559 -0.144945 24.0997 0.173801 24.8184C0.492547 25.5372 1.21129 25.9997 1.99878 25.9997H25.9985C26.786 25.9997 27.4984 25.5372 27.8234 24.8184C28.1484 24.0997 28.0172 23.2559 27.4922 22.6685L27.0297 22.1497C25.0797 19.9497 23.9985 17.1185 23.9985 14.1748V12.9998C23.9985 8.16239 20.561 4.12495 15.9986 3.19996V1.99997C15.9986 0.893738 15.1049 0 13.9986 0ZM16.8298 30.8308C17.5798 30.0809 17.9986 29.0621 17.9986 27.9996H13.9986H9.99867C9.99867 29.0621 10.4174 30.0809 11.1674 30.8308C11.9174 31.5808 12.9361 31.9996 13.9986 31.9996C15.0611 31.9996 16.0798 31.5808 16.8298 30.8308Z" fill="url(#paint0_linear_1_9880)"/>
<defs>
<linearGradient id="paint0_linear_1_9880" x1="-2.49738e-08" y1="14.7424" x2="28.0006" y2="14.8218" gradientUnits="userSpaceOnUse">
<stop stop-color="#EE4B9E"/>
<stop offset="1" stop-color="#7627B5"/>
</linearGradient>
</defs>
</svg>
