<svg width="16" height="19" viewBox="0 0 16 19" fill="none" xmlns="http://www.w3.org/2000/svg">
<path d="M15.6925 12.9389C15.0025 12.1975 13.7114 11.0821 13.7114 7.42855C13.7114 4.65356 11.7657 2.43214 9.14214 1.88714V1.14285C9.14214 0.511784 8.63071 0 8 0C7.36929 0 6.85786 0.511784 6.85786 1.14285V1.88714C4.2343 2.43214 2.28859 4.65356 2.28859 7.42855C2.28859 11.0821 0.997522 12.1975 0.307524 12.9389C0.0932387 13.1692 -0.00176102 13.4446 2.46924e-05 13.7142C0.00395325 14.3 0.463595 14.8571 1.14645 14.8571H14.8536C15.5364 14.8571 15.9964 14.3 16 13.7142C16.0018 13.4446 15.9068 13.1689 15.6925 12.9389ZM2.4118 13.1428C3.16966 12.1439 3.99823 10.4882 4.00216 7.44926C4.00216 7.44212 4.00001 7.43569 4.00001 7.42855C4.00001 5.21927 5.79072 3.42856 8 3.42856C10.2093 3.42856 12 5.21927 12 7.42855C12 7.43569 11.9978 7.44212 11.9978 7.44926C12.0018 10.4885 12.8303 12.1442 13.5882 13.1428H2.4118ZM8 18.2857C9.26142 18.2857 10.2846 17.2624 10.2846 16H5.71536C5.71536 17.2624 6.73858 18.2857 8 18.2857Z" fill="#1E1E1E"/>
</svg>
