<svg width="18" height="18" viewBox="0 0 18 18" fill="none" xmlns="http://www.w3.org/2000/svg">
<path d="M9 3.6C8.7613 3.6 8.53239 3.69482 8.3636 3.8636C8.19482 4.03239 8.1 4.2613 8.1 4.5V13.5C8.1 13.7387 8.19482 13.9676 8.3636 14.1364C8.53239 14.3052 8.7613 14.4 9 14.4C9.23869 14.4 9.46761 14.3052 9.6364 14.1364C9.80518 13.9676 9.9 13.7387 9.9 13.5V4.5C9.9 4.2613 9.80518 4.03239 9.6364 3.8636C9.46761 3.69482 9.23869 3.6 9 3.6ZM4.5 9C4.2613 9 4.03239 9.09482 3.8636 9.2636C3.69482 9.43239 3.6 9.6613 3.6 9.9V13.5C3.6 13.7387 3.69482 13.9676 3.8636 14.1364C4.03239 14.3052 4.2613 14.4 4.5 14.4C4.73869 14.4 4.96761 14.3052 5.1364 14.1364C5.30518 13.9676 5.4 13.7387 5.4 13.5V9.9C5.4 9.6613 5.30518 9.43239 5.1364 9.2636C4.96761 9.09482 4.73869 9 4.5 9ZM13.5 7.2C13.2613 7.2 13.0324 7.29482 12.8636 7.4636C12.6948 7.63239 12.6 7.8613 12.6 8.1V13.5C12.6 13.7387 12.6948 13.9676 12.8636 14.1364C13.0324 14.3052 13.2613 14.4 13.5 14.4C13.7387 14.4 13.9676 14.3052 14.1364 14.1364C14.3052 13.9676 14.4 13.7387 14.4 13.5V8.1C14.4 7.8613 14.3052 7.63239 14.1364 7.4636C13.9676 7.29482 13.7387 7.2 13.5 7.2ZM15.3 0H2.7C1.98392 0 1.29716 0.284464 0.790812 0.790812C0.284464 1.29716 0 1.98392 0 2.7V15.3C0 16.0161 0.284464 16.7028 0.790812 17.2092C1.29716 17.7155 1.98392 18 2.7 18H15.3C16.0161 18 16.7028 17.7155 17.2092 17.2092C17.7155 16.7028 18 16.0161 18 15.3V2.7C18 1.98392 17.7155 1.29716 17.2092 0.790812C16.7028 0.284464 16.0161 0 15.3 0ZM16.2 15.3C16.2 15.5387 16.1052 15.7676 15.9364 15.9364C15.7676 16.1052 15.5387 16.2 15.3 16.2H2.7C2.46131 16.2 2.23239 16.1052 2.0636 15.9364C1.89482 15.7676 1.8 15.5387 1.8 15.3V2.7C1.8 2.46131 1.89482 2.23239 2.0636 2.0636C2.23239 1.89482 2.46131 1.8 2.7 1.8H15.3C15.5387 1.8 15.7676 1.89482 15.9364 2.0636C16.1052 2.23239 16.2 2.46131 16.2 2.7V15.3Z" fill="#1E1E1E"/>
</svg>
