<svg width="18" height="24" viewBox="0 0 18 24" fill="none" xmlns="http://www.w3.org/2000/svg">
<path d="M12.5881 18.2397L12.7715 21.9579L9.01046 19.3443L5.22838 21.9604L5.41187 18.2397H3.82347L3.54971 23.7923H5.36879L9.00838 21.2748L12.6311 23.7923H14.4503L14.1765 18.2397H12.5881ZM16.903 6.88232L16.7942 4.49995L14.7856 3.21457L13.5 1.20576L11.1176 1.09669L9 0L6.88242 1.09694L4.5 1.20601L3.21437 3.21457L1.20576 4.49995L1.09699 6.88232L0 8.99995L1.09699 11.1176L1.20606 13.5L3.21437 14.7853L4.4998 16.7942L6.88222 16.903L9 18L11.1176 16.903L13.5 16.7942L14.7854 14.7853L16.7942 13.5001L16.903 11.1178L18 9.00015L16.903 6.88232ZM15.3341 10.6972L15.2467 12.6066L13.6367 13.6368L12.6065 15.2468L10.697 15.3341L9 16.2132L7.30278 15.3341L5.39333 15.2468L4.36312 13.6368L2.75331 12.6066L2.6661 10.6972L1.78655 8.99995L2.6659 7.30303L2.75331 5.39333L4.36312 4.36312L5.39333 2.75316L7.30278 2.6659L9 1.7867L10.6972 2.66585L12.6067 2.75311L13.6369 4.36307L15.2467 5.39333L15.3339 7.30278L16.2134 8.99995L15.3341 10.6972Z" fill="url(#paint0_linear_825_4058)"/>
<defs>
<linearGradient id="paint0_linear_825_4058" x1="-3.81618e-09" y1="12.1989" x2="18.0004" y2="12.1752" gradientUnits="userSpaceOnUse">
<stop stop-color="#EE4B9E"/>
<stop offset="1" stop-color="#7627B5"/>
</linearGradient>
</defs>
</svg>
