<svg width="22" height="20" viewBox="0 0 22 20" fill="none" xmlns="http://www.w3.org/2000/svg">
<path d="M15.7501 8.55533C15.7501 8.20934 15.7501 8.03634 15.8021 7.88234C15.9531 7.43435 16.3521 7.26136 16.7521 7.07936C17.2001 6.87436 17.4241 6.77236 17.6471 6.75437C17.8991 6.73437 18.1521 6.78837 18.368 6.90936C18.654 7.06936 18.854 7.37535 19.058 7.62335C20.001 8.76933 20.473 9.34231 20.645 9.9733C20.785 10.4833 20.785 11.0173 20.645 11.5263C20.394 12.4483 19.599 13.2202 19.01 13.9362C18.709 14.3012 18.558 14.4842 18.368 14.5912C18.1483 14.7131 17.8974 14.767 17.6471 14.7462C17.4241 14.7282 17.2001 14.6262 16.7511 14.4212C16.3511 14.2392 15.9531 14.0662 15.8021 13.6182C15.7501 13.4642 15.7501 13.2912 15.7501 12.9452V8.55533ZM5.7503 8.55533C5.7503 8.11934 5.7383 7.72835 5.3863 7.42235C5.25831 7.31135 5.08831 7.23436 4.74932 7.07936C4.30033 6.87536 4.07633 6.77236 3.85333 6.75437C3.18635 6.70037 2.82736 7.15636 2.44336 7.62435C1.49938 8.76932 1.02739 9.34231 0.854394 9.9743C0.715202 10.4826 0.715202 11.019 0.854394 11.5273C1.10639 12.4483 1.90237 13.2212 2.49036 13.9362C2.86135 14.3862 3.21635 14.7972 3.85333 14.7462C4.07633 14.7282 4.30033 14.6262 4.74932 14.4212C5.08931 14.2672 5.25831 14.1892 5.3863 14.0782C5.7383 13.7722 5.7503 13.3812 5.7503 12.9462V8.55533Z" stroke="#1E1E1E" stroke-width="1.5" stroke-linecap="round" stroke-linejoin="round"/>
<path d="M3.75024 6.74988C3.75024 3.43595 6.88418 0.75 10.7501 0.75C14.616 0.75 17.75 3.43595 17.75 6.74988M17.75 14.7497V15.5497C17.75 17.3167 15.96 18.7496 13.75 18.7496H11.7501" stroke="#1E1E1E" stroke-width="1.5" stroke-linecap="round" stroke-linejoin="round"/>
</svg>
