<svg width="28" height="28" viewBox="0 0 28 28" fill="none" xmlns="http://www.w3.org/2000/svg">
<path d="M18 2C18 3.10625 17.1063 4 16 4H2C0.89375 4 0 3.10625 0 2C0 0.89375 0.89375 0 2 0H16C17.1063 0 18 0.89375 18 2ZM18 18C18 19.1063 17.1063 20 16 20H2C0.89375 20 0 19.1063 0 18C0 16.8937 0.89375 16 2 16H16C17.1063 16 18 16.8937 18 18ZM0 10C0 8.89375 0.89375 8 2 8H26C27.1063 8 28 8.89375 28 10C28 11.1062 27.1063 12 26 12H2C0.89375 12 0 11.1062 0 10ZM28 26C28 27.1063 27.1063 28 26 28H2C0.89375 28 0 27.1063 0 26C0 24.8937 0.89375 24 2 24H26C27.1063 24 28 24.8937 28 26Z" fill="black"/>
</svg>
