<svg width="32" height="32" viewBox="0 0 32 32" fill="none" xmlns="http://www.w3.org/2000/svg">
<path d="M30 17V25C30 25.5625 29.8073 26.0365 29.4219 26.4219C29.0365 26.8073 28.5625 27 28 27H4C3.4375 27 2.96354 26.8073 2.57812 26.4219C2.19271 26.0365 2 25.5625 2 25V17C2 16.4375 2.19271 15.9635 2.57812 15.5781C2.96354 15.1927 3.4375 15 4 15H10C10.2708 15 10.5052 15.099 10.7031 15.2969C10.901 15.4948 11 15.7292 11 16C11 16.2708 10.901 16.5052 10.7031 16.7031C10.5052 16.901 10.2708 17 10 17H4V25H28V17H22C21.7292 17 21.4948 16.901 21.2969 16.7031C21.099 16.5052 21 16.2708 21 16C21 15.7292 21.099 15.4948 21.2969 15.2969C21.4948 15.099 21.7292 15 22 15H28C28.5625 15 29.0365 15.1927 29.4219 15.5781C29.8073 15.9635 30 16.4375 30 17ZM10.7188 9.71875L15 5.40625V16C15 16.2708 15.099 16.5052 15.2969 16.7031C15.4948 16.901 15.7292 17 16 17C16.2708 17 16.5052 16.901 16.7031 16.7031C16.901 16.5052 17 16.2708 17 16V5.40625L21.2812 9.71875C21.3854 9.80208 21.4948 9.86979 21.6094 9.92188C21.724 9.97396 21.8542 10 22 10C22.2708 10 22.5052 9.90104 22.7031 9.70312C22.901 9.50521 23 9.27083 23 9C23 8.85417 22.974 8.72396 22.9219 8.60938C22.8698 8.49479 22.8021 8.38542 22.7188 8.28125L16.7188 2.28125C16.6146 2.19792 16.5052 2.13021 16.3906 2.07812C16.276 2.02604 16.1458 2 16 2C15.8542 2 15.724 2.02604 15.6094 2.07812C15.4948 2.13021 15.3854 2.19792 15.2812 2.28125L9.28125 8.28125C9.19792 8.38542 9.13021 8.49479 9.07812 8.60938C9.02604 8.72396 9 8.85417 9 9C9 9.27083 9.09896 9.50521 9.29688 9.70312C9.49479 9.90104 9.72917 10 10 10C10.1458 10 10.276 9.97396 10.3906 9.92188C10.5052 9.86979 10.6146 9.80208 10.7188 9.71875ZM25 21C25 20.5833 24.8542 20.2292 24.5625 19.9375C24.2708 19.6458 23.9167 19.5 23.5 19.5C23.0833 19.5 22.7292 19.6458 22.4375 19.9375C22.1458 20.2292 22 20.5833 22 21C22 21.4167 22.1458 21.7708 22.4375 22.0625C22.7292 22.3542 23.0833 22.5 23.5 22.5C23.9167 22.5 24.2708 22.3542 24.5625 22.0625C24.8542 21.7708 25 21.4167 25 21Z" fill="url(#paint0_linear_804_3563)"/>
<defs>
<linearGradient id="paint0_linear_804_3563" x1="2" y1="15.4824" x2="30.0005" y2="15.3807" gradientUnits="userSpaceOnUse">
<stop stop-color="#EE4B9E"/>
<stop offset="1" stop-color="#7627B5"/>
</linearGradient>
</defs>
</svg>
